<svg xmlns="http://www.w3.org/2000/svg" width="2000" height="2000" viewBox="0 0 2000 2000">
  <defs>
    <style>
      .cls-1 {
        fill: #737373;
      }

      .cls-1, .cls-2 {
        fill-rule: evenodd;
      }

      .cls-2 {
        fill: #fff;
      }
    </style>
  </defs>
  <path class="cls-1" d="M603,151s-90.572,159.9-89,184,16.5,88.608,102,239c87.546,153.986,131,257,131,257l226-20Z"/>
  <path class="cls-1" d="M255,863l-81,142-19,50s-53.558,167.34,125,148,633-40,633-40,266.99,596.85,279,611,71.06,115.02,132,99,204-71,204-71L1025,939Z"/>
  <path class="cls-1" d="M1821,1004s-64.26,154.7-150,164c-49.24,5.88-181.49-6.24-238-2-40.82,3.06-103-9-103-9l-45-159Z"/>
  <path class="cls-2" d="M889,793S643.726,338.376,624,297s-57.55-145.061-2-155,175.289-3.418,267,137,297,510,297,510,387.88-3.379,472,8,218.71,32.87,171,188c-12.1,24.57-21.98,81.76-166,68s-348-16-348-16,248.99,492.66,265,586,21.3,220.04-158.33,179.57c-87.53-42.89-194.5-269.97-223.67-343.57-29.15-73.55-183-418-183-418s-480.467,24.28-616,44c-37.589,2.09-165.174,24.89-177-96-11.536-117.927,56.292-171.928,184-176S889,793,889,793Z"/>
</svg>
