<svg xmlns="http://www.w3.org/2000/svg" width="2000" height="2000" viewBox="0 0 2000 2000">
  <defs>
    <style>
      .cls-1 {
        fill: #ffed00;
      }

      .cls-1, .cls-2, .cls-3, .cls-4, .cls-5, .cls-6 {
        fill-rule: evenodd;
      }

      .cls-2 {
        fill: none;
        stroke: #110907;
        stroke-width: 10px;
      }

      .cls-4 {
        fill: #262626;
      }

      .cls-5 {
        fill: #404040;
        opacity: 0.91;
      }

      .cls-6 {
        fill: gray;
        opacity: 0.8;
      }
    </style>
  </defs>
  <path class="cls-1" d="M632,733l485-285,779,456-605,353L702,1125"/>
  <path class="cls-2" d="M693,741l430-246,695,401-455,273"/>
  <path class="cls-3" d="M851,806l469,272-25,17L828,820"/>
  <path id="Shape_316_1" data-name="Shape 316 1" class="cls-3" d="M1274.64,722c17.89,10.323,11.12,22.459,3.99,34.15-6.72,11.018-14.77,22.149-22.51,33.075-2.61,3.678-9.08,11.829-10.65,14.537,4.93,2.846,14.86,8.694,20.41,11.868q11.865,7.287,23.68,14.545l6.36,3.839c5.8,4.814,12.41,8.217,14.73,13.036,1.67,3.47.76,9.217-7.97,12.813-19.64,8.081-33.87-.684-45.66-11.67q-7.335-4.848-14.69-9.714c-1.91-1.569-15.12-9.222-16.51-9.958q-7.245,8.773-14.42,17.468a396.5,396.5,0,0,1-28.65,31.909c-9.42,9.368-19.02,15.659-33.46,11.152-12.85-4.014-9.77-12.565-6.71-18.192,5.96-10.979,18.17-21.847,27.52-33.3q11.535-14.018,23.26-28.248-9.63-5.361-19.28-10.739c-14.71-8.344-30.71-17.381-45.41-23.948-13.64-6.1-18.25-10.137-13.26-16,4.55-5.351,14.71-8.964,20.96-8.821,9.5,0.218,17.77,5.59,27.3,9.446q4.89,2.8,9.78,5.59,10.26,5.349,20.48,10.683,8.61,4.615,17.21,9.22c0.16-.042.32-0.085,0.49-0.127q4.8-6.75,9.63-13.55c8.26-11.994,16.65-23.7,26.08-35.824,3.54-4.551,11.76-14.841,21.21-14.644C1270.79,720.643,1272.32,721.523,1274.64,722Z"/>
  <path class="cls-4" d="M704,616L103,959s911.53,529.08,921,533,592-341,592-341L865,1049"/>
  <path class="cls-5" d="M103.2,958.919L1026,1492l-1.99,50L105.2,1011.11"/>
  <path class="cls-6" d="M1024.63,1492.05l-0.88,49.38,591.72-340.26,0.04-50.47"/>
</svg>
