<svg xmlns="http://www.w3.org/2000/svg" width="250" height="250" viewBox="0 0 2000 2000">
  <defs>
    <style>
      .cls-1 {
        fill: #fff;
        fill-rule: evenodd;
      }
    </style>
  </defs>
  <path id="Shape_324_1" data-name="Shape 324 1" class="cls-1" d="M942.138,112h86.982c16.68,3.88,37.41,2.952,55.99,7,45.55,9.92,89.6,17.058,129.97,31.984,178.57,66.037,315.7,188.622,393.91,354.832,47.07,100.05,68.56,225.263,103.97,335.84,11.55,36.067,17.56,70.74,28,106.949,17.2,59.678,35.54,121.928,51.98,181.918q5.01,29.475,10,58.97c3.54,17.04,1.06,55.79-2,69.96q-2,16.995-4,33.99c-6.96,29.47-15.8,57.99-27.99,81.96-55.97,110.12-132.12,177.67-265.94,209.9-37.76,9.09-85.06,5.97-129.97,6-5.69,10.62-5.68,24.65-10,36.98-5.19,14.85-10.79,31.82-17.99,45.98-37.82,74.37-89.82,128.93-160.97,169.92-27.97,16.11-61.01,25.19-94.98,34.98-64.34,18.55-148.386,4.87-199.95-12.99-124.867-43.25-211.569-136.38-241.944-273.87h-2q-23.493-.51-46.989-1c-35.578,0-71.379,1.52-100.977-6-90.581-23.03-162.755-59.12-211.952-122.94-8.662-11.24-20.48-21.59-27.993-33.99-27.239-44.95-45.839-91.15-58.987-151.92q-1-23.49-2-46.98c-0.012-55.25,7.857-95,19-136.94,11.341-42.69,17.654-85.67,27.994-126.936,23.222-92.674,37.4-187.143,61.986-277.868,10.668-39.374,15.61-76.054,27.993-111.946C382.37,433.485,478.671,311.09,593.218,233.942a741.975,741.975,0,0,1,206.953-96.954c27.74-8.119,56.86-11.936,85.98-17.991C903.183,115.455,928.353,119.934,942.138,112Zm5,148.929-37.991,4-51.988,10c-51.949,13.915-98,33.23-140.968,55.974C611.3,386.412,518.065,499.636,475.245,617.76c-11.016,30.387-15.025,61.159-24,94.955-13.984,52.69-23.677,110.32-37.991,162.922-6.638,24.393-7.519,46.5-14,70.966-10.772,40.682-16.544,83.687-27.993,125.937-20.68,76.33-44.757,172.63-6,247.89,28.413,55.17,76.944,97.51,141.967,115.94,29.146,8.26,65.8,7,102.977,7H1386.04c31.59,0,66.67,3.02,92.98-4,22.46-6,45.76-13.01,63.98-23.99,51.97-31.31,91.29-78.5,107.98-144.93,15.32-61.02-6.57-121.76-21-168.92-18.71-61.16-28.93-125.031-50.99-183.913-7.32-19.559-8.84-38.756-14.99-58.972-16.53-54.265-29.17-113.376-47.99-166.92-10.31-29.318-12.94-58.755-25-85.96-69.09-155.891-173.25-259.574-337.92-319.848-28.61-10.471-60.49-14.226-91.98-20.99C1027.48,257.7,985.943,260.973,947.137,260.929ZM803.17,1591.3c-1.964,7.94,5.9,17.55,9,23.99,10.611,22,22.8,39.78,38.991,55.97,29.262,29.25,64.294,50.95,110.975,62.97,78.136,20.12,158.416-16.7,195.956-53.98,19.04-18.9,35.18-37.51,47.99-62.97,1.97-3.91,12.06-21.33,10-23.98v-2H803.17Z"/>
</svg>
