<svg xmlns="http://www.w3.org/2000/svg" width="250" height="250" viewBox="0 0 2000 2000">
  <defs>
    <style>
      .cls-1 {
        fill: #fff;
        stroke: #fff;
        stroke-width: 10px;
        fill-rule: evenodd;
      }
    </style>
  </defs>
  <path id="Shape_319_1" data-name="Shape 319 1" class="cls-1" d="M1008.49,187.125c151.91-2.627,291.86,35.633,385.72,91.948,15.43,9.255,30.97,15.589,45.97,24.986q34.965,24.484,69.95,48.973c24.47,18.172,46.55,40.555,67.95,61.965,77.95,77.987,134.7,165.946,179.87,277.844,19.26,47.716,29.28,100.668,41.97,156.912q3.495,31.978,6.99,63.964v17.99q0.51,18.488,1,36.979c0.01,29.81.29,59.514-4.99,84.954-5.19,24.97-4.01,47.58-10,70.96-16.93,66.17-36.18,124.49-60.95,180.9-28.55,65.01-72.37,117.18-112.92,169.9a460.981,460.981,0,0,1-82.94,82.96c-32.32,24.85-63.47,51.68-98.93,73.95-76.35,47.96-162.81,77.58-263.81,101.95-55.77,13.45-120.37,12.99-187.867,12.99H473.87c-54.316,0-119.421,5.27-156.888-11.99-34.127-15.73-57.492-48.32-66.952-88.95q-0.5-62.97-1-125.93V996.67c-0.009-59.156-.905-115.757,10.992-164.907,12.583-51.982,22.437-101.391,40.971-146.918,76.36-187.571,218.955-346.406,401.712-426.76,58.032-25.515,118.955-42.4,187.865-58.967l78.943-9.994ZM373.942,1622.32H872.584c93.824,0.01,200.326,8.11,278.8-10.99,33.92-8.26,68.28-14.65,98.93-26.99,196.15-78.95,314.87-198.27,393.72-394.78,15.42-38.43,22.73-81.84,32.98-126.93,4.53-19.93.87-39.63,4.99-60.96,5.18-26.762,2.21-90.68-2.99-114.938-9.43-43.95-13.97-86.313-27.98-124.93-22.72-62.618-49.71-119.766-84.94-169.9-19.2-27.319-42.78-50.847-62.96-76.957-6.26-8.1-15.82-15.68-23.98-21.988q-6-6.5-11.99-12.993c-15.89-12.29-30.52-25.059-46.97-36.979-62.81-45.527-130.62-80.414-213.85-106.94-32.44-10.34-65.32-11.472-101.92-18.989-33.84-6.95-96.34-9.261-131.908-2l-35.974,3c-35.539,7.9-70.445,12.411-102.926,22.987-178.755,58.2-328.6,187.688-400.713,351.8-17.823,40.561-31.457,83.567-43.968,129.927l-11.992,71.96c-6,28.672-3,62.744-3,94.946V1622.32Z"/>
</svg>
