<svg xmlns="http://www.w3.org/2000/svg" width="500" height="500" viewBox="0 0 2000 2000">
  <defs>
    <style>
      .cls-1 {
        fill: #fff;
        fill-rule: evenodd;
      }
    </style>
  </defs>
  <path id="Shape_338_1" data-name="Shape 338 1" class="cls-1" d="M526.622,123.094c97.741-2.426,149.457,38.281,208.943,74l172.952,100q396.35,228.484,792.783,457.016c30.87,18.352,63.49,36.155,90.97,58,53.05,42.165,104.56,144.172,78.98,245.012-37.98,149.71-186.15,196.01-303.91,266.01q-323.385,186.48-646.826,373.01l-162.956,94c-65.995,39.51-108.887,71.21-200.944,87.01-54.488,9.35-115.214-18.7-144.96-37.01-55.093-33.9-95.634-83.56-113.969-154-9.076-34.87-6-82.91-6-126.01V617.111c0-111.966-13.711-265.523,20.994-345.012,27.8-63.666,79.075-109.255,144.96-135C477.623,129.285,506.936,131.1,526.622,123.094Zm290.92,766.027-148.959,6c-24.4,3.847-52.042-.541-72.98,3-29.651,5.015-55.244,3.241-73.98,18-13.964,11-25.33,45.031-17,71,8.984,28,45.782,34.515,84.977,28,56.859-9.45,124.162-7,187.948-7q43.484,0.5,86.976,1,24.49,74.49,48.987,149C932.681,1219,943.1,1287.9,973.5,1338.14c13.724,22.68,39.421,53.54,80.981,41,46.97-14.18,48.18-59.3,34.99-111.01-22.67-88.82-47.94-175.73-80.98-257v-1q31.98,0.5,63.98,1l82.98,6c58.34,11.63,116.22,18.38,140.96-31.006,4.46-8.9,11.24-23.344,8-39-8.4-40.586-43.1-43.717-85.98-51-72.53-12.322-173.39-9.291-253.928-9-43.019-95.2-70.758-207.4-131.964-285.01-16.335-20.713-60.192-50.706-100.972-35-28.823,11.1-13.054,64.411-5,87Z"/>
</svg>
