<svg xmlns="http://www.w3.org/2000/svg" width="500" height="500" viewBox="0 0 2000 2000">
  <defs>
    <style>
      .cls-1, .cls-2 {
        fill: #fff;
      }

      .cls-1 {
        stroke: #110907;
        stroke-width: 1px;
        fill-rule: evenodd;
      }
    </style>
  </defs>
  <path id="Shape_347_1" data-name="Shape 347 1" class="cls-1" d="M231.067,1125.83c126.379-7.95,177.091,143.56,255.251,207.75,125.191,102.83,227.894,158.96,428.206,191.02,271.676,43.49,506.036-94.25,626.266-220.3,41.51-43.52,95.19-134.31,142.27-163.13,86.37-52.87,214.42,22.78,195.28,128.28-15.41,84.91-124.15,193.17-182.72,241.21-122.13,100.17-244.07,182.92-418.45,234.24-352,103.6-698.4-18.26-908.016-172.89-92.368-68.14-175.213-156.83-234.329-257.95-30.88-52.82-10.683-127.17,27.9-157.55C182.872,1140.64,196.063,1129.22,231.067,1125.83Z"/>
  <path id="Shape_316_1" data-name="Shape 316 1" class="cls-1" d="M1156.8,216.6c70.36-.361,95.12,47.453,117.91,94.967,21.66,45.159,41.02,93.4,60.55,140.857,6.61,16.067,19.82,53.079,25.49,64.374,20.06,0.092,60.92.638,83.5,0.637l100.06,3.187,26.77,0.637c28.95,4.749,54.86,3.561,76.48,14.66,15.61,8.011,33.66,27.994,27.41,55.45-14.15,62.09-75.49,59.8-138.95,45.891q-32.49-2.232-65.01-4.462c-9.48-1.555-63.97-2.084-69.47-1.912q14.025,41.424,28.05,82.857c17.69,50.67,33.96,103.972,47.16,158.7,11.88,49.262,12.64,88.766-35.05,100.7-42.43,10.618-65.16-24.292-77.76-49.077-24.44-48.051-34.61-106.9-52.9-161.89q-21.99-66.916-43.98-133.847l-77.12.638c-59.09,0-122.99.127-175.9,5.736-49.024,5.2-71.851.672-79.673-26.769-7.113-24.955,3.327-54.342,17.209-65.011,21.061-16.188,55.864-14.183,88.594-19.121h38.88l78.39-3.187,66.92-1.912c0.21-.425.43-0.85,0.64-1.275q-11.79-29.634-23.58-59.274c-21.26-51.485-41.09-101.866-59.91-154.88-7.03-19.769-22.36-64.587-1.92-80.307C1144.45,219.244,1150.43,219.211,1156.8,216.6Z"/>
  <circle class="cls-2" cx="551.61" cy="595.844" r="142.891"/>
</svg>
