<svg xmlns="http://www.w3.org/2000/svg" width="1999" height="1999" viewBox="0 0 2000 2000">
  <defs>
    <style>
      .cls-1 {
        fill: #fff;
        fill-rule: evenodd;
      }
    </style>
  </defs>
  <path id="Shape_330_1" data-name="Shape 330 1" class="cls-1" d="M445.1,1000.61H1492.42c34.48-.01,75.82-3.039,104.27,4.58,34.5,9.24,63.13,22.82,88.23,41.25,41.71,30.62,65.77,76.9,80.21,135.21,6.97,28.13,2.29,72.94,2.29,105.42,0.01,35.18-1.49,65.93-10.31,92.81-23.1,70.42-67.81,119.39-114.59,166.15-62.26,62.23-136.48,111.29-223.44,148.96-35.47,15.36-74.1,25.46-112.29,37.81-38.78,12.54-81.19,14.22-122.61,24.06q-18.33,1.725-36.67,3.44c-11.48,2.55-24.79.62-37.81,3.44-31.44,6.81-69.88,4.57-105.42,4.58-25.435,0-56.812,2.61-79.067-2.29q-24.633-1.155-49.272-2.29c-38.928-8.77-79.522-6.37-116.879-16.05-52.736-13.65-105.278-22.94-152.4-42.39-44.29-18.29-88.414-37.47-127.191-61.88-28.388-17.86-54.886-38.53-81.356-58.43-5.37-4.04-9.553-10.86-14.9-14.9-25.58-19.33-48.367-44.21-67.606-69.9-13.451-17.95-30.182-34.48-42.4-53.85-30.408-48.22-40.093-99.06-40.1-178.75,0-28.08-3.635-61.4,2.292-85.94,7.427-30.75,16.222-58,30.938-81.35,25.018-39.71,65.057-70.85,112.3-88.23,15.012-5.53,31.542-6.61,48.126-10.32C432.681,1000.43,440.847,1003.25,445.1,1000.61Z"/>
  <path id="Shape_316_1" data-name="Shape 316 1" class="cls-1" d="M812.1,265c62.025-.319,83.851,41.854,103.94,83.761,19.094,39.831,36.164,82.38,53.375,124.236,5.827,14.171,17.477,46.816,22.473,56.778,17.681,0.081,53.7.563,73.6,0.562l88.21,2.811,23.6,0.562c25.52,4.189,48.36,3.14,67.42,12.93,13.75,7.065,29.67,24.691,24.16,48.907-12.48,54.764-66.55,52.747-122.48,40.475q-28.665-1.967-57.31-3.935c-8.36-1.371-56.4-1.837-61.24-1.686q12.36,36.537,24.72,73.08c15.6,44.691,29.94,91.7,41.57,139.977,10.47,43.448,11.15,78.291-30.9,88.82-37.39,9.366-57.43-21.425-68.541-43.286-21.541-42.381-30.511-94.29-46.633-142.787L909.3,628.152l-67.982.562c-52.089,0-108.425.112-155.068,5.06-43.213,4.584-63.335.593-70.23-23.611-6.27-22.01,2.933-47.929,15.17-57.34,18.566-14.278,49.244-12.509,78.1-16.864h34.272l69.107-2.811,58.993-1.686q0.281-.562.562-1.125-10.394-26.137-20.788-52.28c-18.735-45.41-36.217-89.846-52.813-136.6-6.189-17.436-19.708-56.966-1.686-70.831C801.211,267.329,806.488,267.3,812.1,265Z"/>
</svg>
