<svg xmlns="http://www.w3.org/2000/svg" width="2000" height="2000" viewBox="0 0 2000 2000">
  <defs>
    <style>
      .cls-1 {
        fill: #fff;
        fill-rule: evenodd;
      }
    </style>
  </defs>
  <path id="Shape_324_1" data-name="Shape 324 1" class="cls-1" d="M1580.12,340.246c9.88,8.908,17.37,20.785,25.67,31.252,12.73,16.051,28.47,30.773,41.22,46.828,7.03,8.844,13.93,21.913,23.43,28.12C1634.63,532,1581.18,604.268,1529.38,675.2c-14.94,20.452-35.16,37.888-50.26,57.985-9.72,12.929-21.32,23.618-31,36.5q-10.2,9.7-20.39,19.393a259.727,259.727,0,0,1-48.25,48.436l-9.63,10.743a251.513,251.513,0,0,1-25.79,22.662q-5.355,5.91-10.71,11.82C1287.37,917.7,1246.7,959.478,1200,994.007,1064.35,1094.3,922.626,1189.47,758.394,1263.04c-141.232,63.26-281.02,114.7-464.655,140.48-6.279-11.63-17.71-20.13-25.648-30.2-14.811-18.79-29.866-36.43-44.653-55.22-5.844-7.43-13.627-13.7-18.948-21.86,14.9-.45,30.585-4.72,43.514-8.18,27.1-7.26,54.175-9.89,79.372-17.28,29.482-8.65,57.506-12,85.843-21.63,67.154-22.81,133.879-44.1,195.2-71.16,145.617-64.26,277.936-135.77,399.883-221.767,40.21-28.357,79.01-58.594,118.5-87.751,17.25-12.744,32.39-29.247,49.45-42.115,24.29-18.323,44.74-40.031,68.81-58.318,11.09-8.424,18.98-21.745,30.02-30.137,12.17-9.247,21.58-20.581,32.19-31.234s21.97-20.164,31.07-32.27q8.6-8.082,17.18-16.165c11.04-14.675,24.2-27.1,35.27-41.86,16.3-21.755,37.27-41.222,53.44-63.327,33.04-45.179,63.36-90.744,93.55-139.1,9.86-15.8,18.59-32.6,28.59-49.139C1570.91,357.3,1577.31,349.068,1580.12,340.246Z"/>
  <path id="Shape_324_2" data-name="Shape 324 2" class="cls-1" d="M1878.91,1212.51c-7.94,7.6-18.37,13.23-27.61,19.53-14.17,9.68-27.28,21.78-41.46,31.47-7.81,5.34-19.25,10.46-24.86,17.84-72.68-30.78-133.44-75.21-193.09-118.29-17.2-12.42-31.66-28.96-48.55-41.5-10.86-8.08-19.75-17.58-30.57-25.62q-8.07-8.37-16.14-16.73a214.814,214.814,0,0,1-40.38-39.64q-4.5-3.975-8.99-7.94a204.665,204.665,0,0,1-18.8-21.11q-4.95-4.41-9.89-8.82c-28.84-37.472-63.7-70.917-92.14-108.952-82.63-110.474-160.69-225.639-219.52-358.088-50.59-113.9-91.03-226.328-108.181-372.881,10.181-4.67,17.821-13.516,26.7-19.545,16.59-11.25,32.19-22.726,48.78-33.957,6.56-4.438,12.17-10.448,19.35-14.452-0.02,11.85,3.22,24.42,5.85,34.784,5.5,21.72,7.02,43.3,12.69,63.512,6.64,23.652,8.76,46,16.26,68.77,17.8,53.959,34.29,107.535,55.91,156.977,51.33,117.409,109.26,224.454,179.96,323.66,23.32,32.712,48.28,64.351,72.31,96.508,10.49,14.055,24.29,26.531,34.9,40.429,15.11,19.79,33.24,36.63,48.32,56.245,6.95,9.035,18.21,15.669,25.13,24.667,7.63,9.914,17.13,17.7,26.01,26.416s16.76,18.007,26.93,25.567q6.72,7.035,13.45,14.08c12.33,9.17,22.67,19.96,35.07,29.15,18.29,13.55,34.47,30.73,53.06,44.18,38,27.47,76.4,52.8,117.21,78.1,13.33,8.27,27.56,15.66,41.52,24.05C1864.48,1204.73,1871.4,1210.04,1878.91,1212.51Z"/>
  <path id="Shape_324_2_copy" data-name="Shape 324 2 copy" class="cls-1" d="M118.476,756.863c7.943-7.6,18.376-13.225,27.617-19.532,14.172-9.673,27.281-21.776,41.457-31.465,7.809-5.338,19.252-10.464,24.859-17.839C285.094,718.8,345.852,763.235,405.5,806.316c17.2,12.422,31.658,28.953,48.548,41.5,10.865,8.074,19.75,17.574,30.575,25.618l16.139,16.725a214.859,214.859,0,0,1,40.379,39.644l8.987,7.943a204.746,204.746,0,0,1,18.8,21.1l9.884,8.824c28.845,37.476,63.7,70.916,92.149,108.956,82.627,110.47,160.682,225.64,219.512,358.08,50.591,113.9,91.038,226.33,108.185,372.88-10.185,4.67-17.817,13.52-26.706,19.55-16.588,11.25-32.189,22.73-48.78,33.96-6.558,4.44-12.17,10.45-19.344,14.45,0.019-11.85-3.219-24.42-5.847-34.79-5.509-21.72-7.026-43.29-12.7-63.51-6.637-23.65-8.752-46-16.261-68.77-17.8-53.96-34.289-107.53-55.905-156.97-51.331-117.41-109.263-224.46-179.964-323.66-23.312-32.72-48.281-64.36-72.3-96.51-10.5-14.06-24.293-26.53-34.9-40.43-15.11-19.79-33.239-36.63-48.324-56.25-6.949-9.03-18.2-15.67-25.126-24.66-7.627-9.92-17.128-17.7-26.009-26.419s-16.759-18-26.933-25.563l-13.447-14.081c-12.333-9.175-22.667-19.964-35.075-29.156-18.284-13.545-34.47-30.729-53.06-44.173-37.994-27.477-76.4-52.809-117.205-78.106-13.33-8.263-27.564-15.657-41.527-24.049C132.909,764.645,126,759.338,118.476,756.863Z"/>
  <path class="cls-1" d="M435.529,325.844l111.383-78.227L1553.19,1680.39l-111.38,78.23Z"/>
  <path id="Shape_325_1" data-name="Shape 325 1" class="cls-1" d="M956.179,94.548c46.731-.62,102.711-3.636,142.151,5.344,14.53,3.308,27.59.822,41.69,4.275q33.12,6.412,66.26,12.826c50.64,14.443,99.94,27.315,145.36,47.029,226.67,98.373,386.83,262.466,485.24,489.529,16.28,37.548,28.21,79.178,41.69,120.778q6.945,32.063,13.89,64.131c6.53,25.491,4.82,53.038,10.69,79.094q0.525,14.429,1.07,28.859c3.58,16.712,4.94,66.907,1.07,84.437-1.62,7.29.25,17.54-1.07,23.52-3.71,16.71.54,33.97-3.21,50.23q-6.4,40.08-12.83,80.16c-17.08,60.47-30.33,117.78-53.44,171.02-106.74,245.92-300.44,422.87-565.4,510.9-45.62,15.16-94.08,20.29-144.29,32.07-26.12,6.12-54.6,1.52-81.23,7.48h-41.68c-31.29.01-64.127,1.77-90.851-4.28q-9.618-.525-19.239-1.06-39.542-6.42-79.092-12.83c-27.359-7.73-55.675-12.48-82.3-21.38-36.6-12.23-72.438-26.99-105.812-41.68-197.594-86.97-365.2-254.71-452.109-452.12-14.768-33.55-27.651-68.95-39.546-104.75-4.355-13.11-5.268-25.02-9.619-38.48-12.483-38.6-14.792-82.19-24.583-125.05-3.725-16.31.393-33.42-3.207-50.23-3.578-16.72-4.946-66.912-1.069-84.443V946.413c6.04-26.932,2.106-55.983,8.551-82.3,3.731-15.238,4.1-32.331,8.55-48.1,12.956-45.867,21.247-91.906,38.477-133.605C255.681,427.359,420.276,258.82,675.081,153.334c43.067-17.829,90.291-27.305,137.877-40.616,15.477-4.329,32.042-4.928,47.028-8.551l63.06-7.481C932.953,94.48,948.4,99.437,956.179,94.548Zm2.138,128.261c-7.075,4.113-20.091.141-28.858,2.137l-58.785,7.482c-57.126,14.434-110.968,23.948-160.322,44.891-169.21,71.8-292.021,182.19-383.7,331.34-25.818,42-43.348,89.86-63.06,137.881-17.678,43.063-22.441,91.965-34.2,141.086q-3.207,30.995-6.413,61.993v23.515c-3.978,18.612-2.861,60.436,1.068,78.026l3.207,45.96c8.663,36.89,11.706,74.96,22.445,107.95,3.48,10.69,4,19.52,7.482,29.93,9.854,29.47,20.877,58.75,33.133,86.58,76.363,173.35,221.57,313.74,395.461,390.12,25.47,11.19,53.44,22.82,81.23,32.07,22.625,7.52,46.439,11.7,69.473,18.17q35.8,5.88,71.61,11.75,10.688,0.54,21.377,1.07c22.087,4.81,49.911,3.2,75.881,3.21h35.28q34.185-3.21,68.4-6.41c44.15-10.49,87.11-15.46,127.19-28.86,220.96-73.89,387.9-226,477.76-430.74,15.32-34.91,26.17-72.18,38.48-110.09q7.47-34.2,14.96-68.41c6.74-26.25,3.5-55.17,9.62-82.3v-21.38c4.39-20.56,2.08-75.237-2.14-94.056q-0.54-11.221-1.07-22.445-4.275-28.857-8.55-57.718-8.01-34.2-16.03-68.405c-9.24-28-18.99-56.574-29.93-82.3-87.41-205.545-233.24-346.026-440.35-431.811-49.86-20.654-104.69-28.953-162.46-42.754l-34.2-3.206C1046.67,219.1,999.879,222.893,958.317,222.809Z"/>
</svg>
