<svg xmlns="http://www.w3.org/2000/svg" width="500" height="500" viewBox="0 0 2000 2000">
  <defs>
    <style>
      .cls-1, .cls-2 {
        fill: #fff;
        stroke: #fff;
        fill-rule: evenodd;
      }

      .cls-1 {
        stroke-width: 1px;
      }

      .cls-2 {
        stroke-width: 5px;
      }
    </style>
  </defs>
  <path id="Shape_317_1" data-name="Shape 317 1" class="cls-1" d="M1593.94,160.031c116.41-2.138,179.61,69.438,194.07,170.227,9.5,66.245-17.42,119.088-31.85,166.245q-43.785,150.3-87.58,300.634-49.26,164.735-98.53,329.5c-44.83,146.74-72.41,287.8-177.15,373.3-77,62.87-164.36,77.89-273.68,109.51q-178.635,48.27-357.29,96.56-130.858,35.325-261.744,70.68c-39.048,11.18-84.824,33.16-137.342,25.88-47.132-6.54-80.275-19.18-109.475-42.81-37.2-30.1-56.378-73.83-64.69-133.39-8.893-63.73,19.619-119.73,33.838-167.24q43.786-154.29,87.58-308.6,51.249-180.66,102.509-361.357c37.151-124.274,56.809-223.89,129.379-311.585C626.5,375.46,751.909,358.831,901.262,322.294L1395.89,202.837q77.115-18.415,154.26-36.833Zm1.99,119.457Q1266.05,358.124,936.1,436.774C824.78,463.883,698.748,476.82,635.536,552.249c-57.32,68.4-76.336,161.845-105.494,260.815Q480.285,988.251,430.52,1163.47L324.03,1534.79c-11.53,40.01-29.352,105.02,5.972,133.39,31.042,24.93,82.062,10.38,118.432,0q148.772-40.815,297.573-81.63,173.151-46.785,346.343-93.57c82.74-23.71,166.42-37.18,223.92-84.62,82.9-68.4,103.18-196.41,138.34-312.58q44.28-147.813,88.57-295.657,59.715-202.062,119.43-404.164C1680.98,332.883,1660.81,280.092,1595.93,279.488Z"/>
  <path id="Shape_316_1" data-name="Shape 316 1" class="cls-2" d="M856.027,644c63.254-.325,85.512,42.667,106,85.389,19.472,40.6,36.88,83.981,54.433,126.65,5.94,14.446,17.82,47.725,22.92,57.881,18.03,0.083,54.76.574,75.06,0.573l89.95,2.866,24.07,0.573c26.03,4.27,49.32,3.2,68.76,13.181,14.03,7.2,30.26,25.17,24.63,49.857-12.71,55.83-67.86,53.77-124.9,41.26q-29.22-2-58.45-4.01c-8.52-1.4-57.51-1.87-62.45-1.72q12.6,37.245,25.21,74.5c15.91,45.56,30.54,93.49,42.4,142.7,10.68,44.29,11.36,79.81-31.51,90.54-38.14,9.55-58.58-21.84-69.91-44.12-21.96-43.21-31.11-96.13-47.554-145.56q-19.766-60.18-39.535-120.35l-69.33.57c-53.121,0-110.573.12-158.14,5.16-44.069,4.67-64.59.6-71.622-24.07-6.394-22.437,2.991-48.86,15.47-58.454,18.934-14.555,50.22-12.752,79.644-17.192h34.951l70.476-2.865,60.162-1.72,0.573-1.146-21.2-53.3c-19.106-46.292-36.934-91.591-53.86-139.258-6.311-17.775-20.1-58.073-1.719-72.208C844.921,646.374,850.3,646.344,856.027,644Z"/>
</svg>
