<svg xmlns="http://www.w3.org/2000/svg" width="250" height="250" viewBox="0 0 2000 2000">
  <defs>
    <style>
      .cls-1 {
        fill: #fff;
        fill-rule: evenodd;
      }
    </style>
  </defs>
  <path id="Shape_323_1" data-name="Shape 323 1" class="cls-1" d="M428.959,112.932H1494.37c37.73,0,80-3.418,111.86,4.261,64.89,15.639,112.74,38.168,157.68,72.434,59.23,45.164,97.91,115.052,118.26,199.194,7.32,30.256,5.33,67.8,5.33,104.39V1497.7c0.01,41.34,2.54,84.69-6.39,118.24-23.14,86.92-63.83,154.61-126.79,201.32-40.08,29.75-86.23,50.25-142.76,63.92-44,10.63-104.71,5.32-156.61,5.32H496.079c-47.871.01-93.347,0.83-129.979-10.65-81.457-25.53-145.457-68.45-189.643-131.02-29.142-41.27-46.566-87.77-59.662-145.93-5.864-26.05-3.2-59.17-3.2-89.48V668.97c-0.007-136.032-12.784-289.459,38.355-374.953,42.642-71.289,97-125.784,177.923-158.715,20.053-8.161,42.62-12.741,64.99-18.109Zm5.327,127.825-22.374,3.2-36.224,10.652c-52.31,21.557-94.862,61.438-117.194,112.912-16.668,38.417-17.047,87.838-17.047,144.868V1475.33c0,60.48-.581,115.69,17.047,156.59,26.487,61.45,79.273,104.21,149.156,122.5,24.885,6.51,57.972,4.26,88.429,4.26H1491.17c32.16,0,69.53,3.3,96.95-3.2,38.9-9.21,68.77-25.14,95.89-45.8,35.65-27.17,60.51-71.8,72.45-122.5,5.46-23.23,3.19-53.42,3.19-80.96V491.081c0-29.209,1.99-60.358-4.26-84.152-13.57-51.643-40.26-94.711-77.77-122.5-26.44-19.584-57.1-33.02-94.83-41.544-27.42-6.195-64.91-2.13-95.88-2.13H434.286Z"/>
  <path id="Shape_316_1" data-name="Shape 316 1" class="cls-1" d="M861.294,641c66.469-.342,89.859,44.857,111.387,89.771,20.462,42.688,38.759,88.291,57.2,133.15,6.24,15.187,18.73,50.174,24.08,60.851,18.95,0.088,57.55.6,78.88,0.6l94.53,3.012,25.28,0.6c27.36,4.489,51.83,3.366,72.26,13.857,14.74,7.573,31.8,26.463,25.89,52.417-13.37,58.7-71.32,56.526-131.26,43.376q-30.7-2.1-61.41-4.21c-8.96-1.47-60.44-1.97-65.63-1.81q13.245,39.15,26.49,78.32c16.71,47.9,32.09,98.29,44.55,150.02,11.23,46.57,11.95,83.91-33.11,95.19-40.08,10.04-61.55-22.96-73.46-46.39-23.08-45.42-32.69-101.05-49.97-153.03q-20.769-63.255-41.544-126.52l-72.853.6c-55.821,0-116.192.12-166.178,5.42-46.308,4.92-67.872.64-75.261-25.3-6.72-23.591,3.143-51.37,16.256-61.455,19.9-15.3,52.773-13.407,83.691-18.075h36.728l74.057-3.013,63.22-1.807,0.6-1.205-22.277-56.032c-20.077-48.667-38.811-96.291-56.6-146.4-6.632-18.688-21.12-61.054-1.806-75.914C849.625,643.5,855.279,643.464,861.294,641Z"/>
</svg>
