<svg xmlns="http://www.w3.org/2000/svg" width="250" height="250" viewBox="0 0 2000 2000">
  <defs>
    <style>
      .cls-1 {
        fill: #fff;
      }

      .cls-2 {
        fill-rule: evenodd;
      }
    </style>
  </defs>
  <rect id="Rounded_Rectangle_1" data-name="Rounded Rectangle 1" class="cls-1" x="139" y="428" width="1235" height="1162" rx="150" ry="150"/>
  <rect id="Rounded_Rectangle_2" data-name="Rounded Rectangle 2" class="cls-1" x="1474" y="428" width="375" height="1162" rx="40" ry="40"/>
  <rect id="Rounded_Rectangle_3" data-name="Rounded Rectangle 3" x="1559" y="635" width="199" height="87" rx="40" ry="40"/>
  <rect id="Rounded_Rectangle_3_copy" data-name="Rounded Rectangle 3 copy" x="1559" y="809" width="199" height="87" rx="40" ry="40"/>
  <rect id="Rounded_Rectangle_3_copy_2" data-name="Rounded Rectangle 3 copy 2" x="1559" y="1306" width="199" height="87" rx="40" ry="40"/>
  <rect id="Rounded_Rectangle_3_copy_3" data-name="Rounded Rectangle 3 copy 3" x="1559" y="1004" width="199" height="197" rx="98.5" ry="98.5"/>
  <path id="Shape_316_1" data-name="Shape 316 1" class="cls-2" d="M624.106,668.015c63.224-.325,85.471,42.664,105.948,85.383,19.463,40.6,36.863,83.976,54.406,126.643,5.94,14.445,17.814,47.722,22.908,57.878,18.018,0.083,54.735.573,75.022,0.573l89.913,2.865,24.053,0.573c26.014,4.269,49.294,3.2,68.724,13.18,14.02,7.2,30.25,25.169,24.62,49.85-12.71,55.83-67.82,53.77-124.842,41.26q-29.2-1.995-58.415-4.01c-8.522-1.4-57.488-1.87-62.423-1.72q12.6,37.245,25.2,74.5c15.9,45.56,30.522,93.48,42.38,142.69,10.672,44.29,11.358,79.81-31.5,90.54-38.12,9.55-58.543-21.84-69.869-44.13-21.957-43.2-31.1-96.11-47.533-145.55L723.182,1038.2l-69.3.57c-53.095.01-110.518,0.12-158.063,5.16-44.047,4.67-64.558.61-71.586-24.07-6.392-22.432,2.99-48.854,15.463-58.446,18.924-14.555,50.195-12.752,79.6-17.192h34.934l70.441-2.865,60.133-1.719q0.287-.573.572-1.146Q674.791,911.848,664.2,885.2c-19.1-46.289-36.916-91.586-53.833-139.25-6.309-17.774-20.089-58.07-1.718-72.2C613.006,670.388,618.385,670.358,624.106,668.015Z"/>
</svg>
