<svg xmlns="http://www.w3.org/2000/svg" xmlns:xlink="http://www.w3.org/1999/xlink" width="2000" height="2000" viewBox="0 0 2000 2000">
  <defs>
    <style>
      .cls-1 {
        stroke: #2626e9;
        stroke-width: 50px;
        fill: url(#linear-gradient);
      }

      .cls-1, .cls-2 {
        fill-rule: evenodd;
      }

      .cls-2 {
        fill: #e6e6e6;
      }
    </style>
    <linearGradient id="linear-gradient" x1="45.875" y1="331.924" x2="1954.09" y2="1668.071" gradientUnits="userSpaceOnUse">
      <stop offset="0"/>
      <stop offset="1" stop-color="blue"/>
    </linearGradient>
  </defs>
  <path id="Polygon_2" data-name="Polygon 2" class="cls-1" d="M1883.58,1377.81l-263.13,109.58-44.15,281.6-282.67-36.67-179.04,221.8L888.128,1781.03,622.182,1883.59,512.6,1620.46l-281.6-44.15,36.669-282.67L45.877,1114.6,218.968,888.14,116.4,622.194,379.537,512.615l44.15-281.6,282.67,36.669,179.034-221.8L1111.86,218.98,1377.8,116.416l109.58,263.133,281.6,44.15-36.67,282.67L1954.11,885.4,1781.02,1111.87Z"/>
  <path id="Shape_316_1" data-name="Shape 316 1" class="cls-2" d="M821.435,540.153c85.272-.438,115.278,57.539,142.9,115.15,26.25,54.757,49.717,113.252,73.377,170.793,8.01,19.481,24.03,64.359,30.9,78.055,24.3,0.112,73.82.774,101.19,0.773l121.27,3.864,32.44,0.773c35.09,5.758,66.48,4.317,92.69,17.774,18.91,9.714,40.8,33.944,33.21,67.236-17.14,75.289-91.48,72.509-168.38,55.639q-39.39-2.7-78.79-5.41c-11.5-1.88-77.54-2.52-84.2-2.31q16.995,50.22,33.99,100.46c21.44,61.44,41.17,126.07,57.16,192.43,14.39,59.73,15.32,107.63-42.48,122.11-51.42,12.87-78.96-29.46-94.24-59.51-29.61-58.26-41.95-129.62-64.11-196.29q-26.644-81.15-53.3-162.3l-93.463.78c-71.613,0-149.063.15-213.189,6.95-59.409,6.3-87.073.82-96.552-32.46-8.621-30.254,4.032-65.887,20.855-78.824,25.525-19.628,67.7-17.2,107.367-23.184H727.2l95.008-3.864,81.1-2.319,0.773-1.545L875.5,833.052c-25.756-62.427-49.791-123.515-72.607-187.8-8.509-23.971-27.1-78.314-2.318-97.375C806.464,543.355,813.718,543.314,821.435,540.153Z"/>
</svg>
