<!DOCTYPE svg PUBLIC "-//W3C//DTD SVG 1.1//EN" "http://www.w3.org/Graphics/SVG/1.1/DTD/svg11.dtd">
<!-- Uploaded to: SVG Repo, www.svgrepo.com, Transformed by: SVG Repo Mixer Tools -->
<svg fill="#ffffff" height="256px" width="256px" version="1.1" id="Layer_1" xmlns="http://www.w3.org/2000/svg" xmlns:xlink="http://www.w3.org/1999/xlink" viewBox="0 0 512 512" xml:space="preserve" stroke="#ffffff" stroke-width="0.00512">
<g id="SVGRepo_bgCarrier" stroke-width="0"/>
<g id="SVGRepo_tracerCarrier" stroke-linecap="round" stroke-linejoin="round"/>
<g id="SVGRepo_iconCarrier"> <g> <g> <path d="M376.74,47.709C345.322,18.618,305.758,1.164,263.868,0c-1.164,0-2.327,0-3.491,0h-1.164c-3.491,0-6.982,0-10.473,0 C160.304,4.655,89.322,72.145,82.34,158.255c-3.491,43.055,8.145,84.945,32.582,118.691 c24.436,32.582,50.036,70.982,59.345,109.382c1.164,4.655,5.818,9.309,11.636,9.309h34.909c6.982,0,11.636-4.655,11.636-11.636 c0-38.4-10.473-76.8-22.109-117.527c-11.636-44.218-24.436-89.6-24.436-137.309c0-58.182,31.418-105.891,69.818-105.891 c2.327,0,5.818,0,8.145,0c33.745,4.655,61.673,51.2,61.673,105.891c0,47.709-12.8,93.091-24.436,137.309 c-10.473,37.236-19.782,72.146-22.109,105.891h-11.636V58.182c0-6.982-4.655-11.636-11.636-11.636s-11.636,4.655-11.636,11.636 v372.364c0,6.982,4.655,11.636,11.636,11.636h44.218l-5.818,37.236c-1.164,5.818-5.818,9.309-11.636,9.309h-53.527 c-5.818,0-10.473-4.655-11.636-9.309l-5.818-37.236c5.818-1.164,9.309-5.818,9.309-11.636c0-6.982-4.655-11.636-11.636-11.636 H197.54c-1.164,0-1.164,0-2.327,0c-5.818,1.164-10.473,6.982-9.309,13.964l8.145,50.036C196.377,500.364,211.504,512,228.958,512 h53.527c17.455,0,31.418-12.8,34.909-29.091l8.145-50.036c0-3.491,0-6.982-2.327-9.309c-2.327-3.491-5.818-4.655-9.309-4.655 h-46.545v-23.273h23.273h34.909c5.818,0,10.473-3.491,11.636-9.309c9.309-38.4,36.073-76.8,59.345-109.382 c22.109-29.091,33.745-65.164,33.745-102.4C430.268,126.836,410.486,81.455,376.74,47.709z M162.631,129.164 c0,51.2,12.8,97.745,25.6,144.291c9.309,34.909,18.618,67.491,20.945,98.909h-13.964c-11.636-39.564-37.236-76.8-61.673-108.218 c-22.109-29.091-31.418-66.327-29.091-103.564c4.655-53.527,38.4-98.909,84.945-122.182 C173.104,61.673,162.631,94.255,162.631,129.164z M377.904,264.145c-23.273,31.418-48.873,68.655-60.509,108.218h-15.127 c2.327-31.418,10.473-64,20.945-98.909c12.8-45.382,25.6-91.927,25.6-144.291c0-34.909-9.309-66.327-24.436-89.6 c12.8,6.982,24.436,15.127,36.073,25.6c30.255,29.091,46.545,67.491,46.545,109.382 C406.995,207.127,396.522,237.382,377.904,264.145z"/> </g> </g> </g>
</svg>