<!DOCTYPE svg PUBLIC "-//W3C//DTD SVG 1.1//EN" "http://www.w3.org/Graphics/SVG/1.1/DTD/svg11.dtd">
<!-- Uploaded to: SVG Repo, www.svgrepo.com, Transformed by: SVG Repo Mixer Tools -->
<svg width="256px" height="256px" viewBox="0 0 48 48" xmlns="http://www.w3.org/2000/svg" fill="#ffffff">
<g id="SVGRepo_bgCarrier" stroke-width="0"/>
<g id="SVGRepo_tracerCarrier" stroke-linecap="round" stroke-linejoin="round"/>
<g id="SVGRepo_iconCarrier"> <title>news-solid</title> <g id="Layer_2" data-name="Layer 2"> <g id="invisible_box" data-name="invisible box"> <rect width="48" height="48" fill="none"/> <rect width="48" height="48" fill="none"/> </g> <g id="icons_Q2" data-name="icons Q2"> <path d="M42,4H6A2,2,0,0,0,4,6V42a2,2,0,0,0,2,2H42a2,2,0,0,0,2-2V6A2,2,0,0,0,42,4ZM12,16a2,2,0,0,1,2-2h6a2,2,0,0,1,2,2v8a2,2,0,0,1-2,2H14a2,2,0,0,1-2-2ZM34,34H14a2,2,0,0,1,0-4H34a2,2,0,0,1,0,4Zm0-8H28a2,2,0,0,1,0-4h6a2,2,0,0,1,0,4Zm0-8H28a2,2,0,0,1,0-4h6a2,2,0,0,1,0,4Z"/> </g> </g> </g>
</svg>