<!DOCTYPE svg PUBLIC "-//W3C//DTD SVG 1.1//EN" "http://www.w3.org/Graphics/SVG/1.1/DTD/svg11.dtd">
<!-- Uploaded to: SVG Repo, www.svgrepo.com, Transformed by: SVG Repo Mixer Tools -->
<svg width="256px" height="256px" viewBox="0 0 24 24" xmlns="http://www.w3.org/2000/svg" fill="#ffffff">
<g id="SVGRepo_bgCarrier" stroke-width="0"/>
<g id="SVGRepo_tracerCarrier" stroke-linecap="round" stroke-linejoin="round"/>
<g id="SVGRepo_iconCarrier"> <g> <path d="M0 0h24v24H0z" fill="none"/> <path d="M2 19V8H1V6h3V4a1 1 0 0 1 1-1h14a1 1 0 0 1 1 1v2h3v2h-1v11h1v2H1v-2h1zm11 0v-7h-2v7h2zm-5 0v-7H6v7h2zm10 0v-7h-2v7h2zM6 5v1h12V5H6z"/> </g> </g>
</svg>