<!DOCTYPE svg PUBLIC "-//W3C//DTD SVG 1.1//EN" "http://www.w3.org/Graphics/SVG/1.1/DTD/svg11.dtd">
<!-- Uploaded to: SVG Repo, www.svgrepo.com, Transformed by: SVG Repo Mixer Tools -->
<svg width="256px" height="256px" viewBox="0 0 24.00 24.00" fill="none" xmlns="http://www.w3.org/2000/svg" stroke="#ffffff">
<g id="SVGRepo_bgCarrier" stroke-width="0"/>
<g id="SVGRepo_tracerCarrier" stroke-linecap="round" stroke-linejoin="round"/>
<g id="SVGRepo_iconCarrier"> <path fill-rule="evenodd" clip-rule="evenodd" d="M12 3C9.51472 3 7.26472 4.00736 5.63604 5.63604C4.00736 7.26472 3 9.51472 3 12C3 14.4853 4.00736 16.7353 5.63604 18.364C7.26472 19.9926 9.51472 21 12 21C14.4853 21 16.7353 19.9926 18.364 18.364C19.9926 16.7353 21 14.4853 21 12C21 9.51472 19.9926 7.26472 18.364 5.63604C16.7353 4.00736 14.4853 3 12 3Z" stroke="#0080ff" stroke-width="1.56" stroke-linecap="round" stroke-linejoin="round"/> <path d="M12 8L12 12" stroke="#0080ff" stroke-width="1.56" stroke-linecap="round" stroke-linejoin="round"/> <path d="M12 12L14 14" stroke="#0080ff" stroke-width="1.56" stroke-linecap="round" stroke-linejoin="round"/> </g>
</svg>