<svg xmlns="http://www.w3.org/2000/svg" width="500" height="500" viewBox="0 0 2000 2000">
  <defs>
    <style>
      .cls-1 {
        fill: #fff;
      }

      .cls-1, .cls-2 {
        fill-rule: evenodd;
      }

      .cls-2 {
        stroke: #110907;
        stroke-width: 1px;
      }
    </style>
  </defs>
  <path id="Shape_319_1" data-name="Shape 319 1" class="cls-1" d="M390.144,274.747H1539.59c34.56,0,73.38-2.69,101.53,4.657,42.3,11.04,79.39,34.646,102.46,65.193,18.15,24.034,30.63,51.764,38.19,86.614,3.86,17.781,1.86,40.207,1.86,60.537V1227.5c0.01,20.33,2.02,42.77-1.86,60.54-8.33,38.24-22.69,66.33-42.85,92.2-24.82,31.87-65.2,52.3-111.77,62.4-27.77,6.03-65.02,1.87-95.95,1.87H1343.05l-141.59,141.56q-36.315,36.315-72.65,72.64c-17.65,17.65-33.74,36.14-55.89,49.36-31.42,18.75-88.984,24.22-127.615,8.39-38.774-15.9-62.984-47.14-90.354-74.51q-67.059-66.585-134.132-133.18-31.668-32.13-63.341-64.26H390.144q-8.382-.945-16.767-1.87-17.7-4.65-35.4-9.31c-41.975-16.67-74.933-45.23-96.874-81.96-32.075-53.69-24.218-151.51-24.218-237.49V613.753c0-87.938-8.733-190.746,24.218-245.872,21.944-36.711,54.892-65.314,96.874-81.958l35.4-9.313Z"/>
  <path id="Shape_316_1" data-name="Shape 316 1" class="cls-2" d="M1259.89,540c56.63-.291,76.56,38.225,94.91,76.5,17.43,36.378,33.02,75.239,48.73,113.466,5.32,12.942,15.96,42.756,20.52,51.855,16.15,0.074,49.04.514,67.21,0.513l80.54,2.568,21.55,0.513c23.31,3.825,44.16,2.868,61.56,11.809,12.57,6.453,27.1,22.55,22.06,44.667-11.38,50.016-60.76,48.174-111.83,36.966l-52.33-3.594c-7.64-1.252-51.5-1.678-55.92-1.54q11.28,33.369,22.57,66.744c14.24,40.817,27.34,83.754,37.96,127.844,9.56,39.68,10.18,71.5-28.21,81.12-34.15,8.55-52.44-19.57-62.59-39.54-19.67-38.7-27.86-86.11-42.58-130.4q-17.7-53.9-35.4-107.818l-62.07.514c-47.57,0-99.01.1-141.6,4.62-39.46,4.187-57.83.542-64.13-21.563-5.72-20.1,2.68-43.774,13.86-52.369,16.95-13.04,44.96-11.424,71.31-15.4h31.29l63.1-2.567,53.87-1.541,0.51-1.027q-9.495-23.871-18.98-47.747c-17.11-41.473-33.07-82.057-48.22-124.761-5.66-15.925-18-52.027-1.54-64.691C1249.94,542.127,1254.76,542.1,1259.89,540Z"/>
  <path id="Shape_341_1" data-name="Shape 341 1" class="cls-2" d="M563.126,548.262c40.477-.78,69.415,11.3,94.075,26.676l21.71,14.863c52.527-41.209,115.233-54.354,180.914-28.582,62.338,24.46,101.306,70.664,121.117,137.955,5.171,17.561,11.633,52.266,8,75.836-3.164,20.519-4.178,39.205-9.522,56.783C945.674,942.783,863.5,1013.15,779.842,1074.55c-24.185,17.75-48.665,34.82-74.651,51.06q-13.139,8.19-26.28,16.39c-2.807.14-34.418-21.44-38.849-24.39-36.883-24.55-71-50.55-105.121-77.36-65.331-51.333-118.314-109.394-151.206-193.6C367.429,804.914,363.4,738.9,378.022,691.933c7.1-22.807,17.215-43.7,29.708-61.356,24.712-34.918,60.444-60.959,105.882-75.074,9.7-3.015,20.385-4.326,31.232-6.1Zm2.285,49.542-14.092.762-24,4.573c-36.995,11.606-65.426,33.734-84.173,63.642-25.5,40.681-33.991,110.944-12.95,163.869,33.795,85,93.621,140.312,161.109,191.31,49.092,38.29,85.051,60.94,87.982,61.73,45.043-27.25,84.435-59.96,124.545-91.839C860.359,946.934,913.479,889.523,934.1,809.309c23.876-92.9-21.955-166.965-80.364-196.262-21.7-10.886-59.143-20.932-90.647-12.2-25.716,7.132-44.008,21.213-62.844,35.061l-21.329,16H678.53l-24.376-18.292C630.22,616.1,606.977,597.686,565.411,597.8Z"/>
  <path class="cls-2" d="M674,624l152-46,43,27,79,98s16.451,43.719,12,86c-4.548,43.209-30,85-30,85L826,1018l-152,94L490,975,399,786l21-113,86-80,97-18Z"/>
</svg>
