<svg xmlns="http://www.w3.org/2000/svg" width="500" height="500" viewBox="0 0 2000 2000">
  <defs>
    <style>
      .cls-1 {
        fill: #fff;
      }

      .cls-1, .cls-2 {
        fill-rule: evenodd;
      }

      .cls-2 {
        stroke: #110907;
      }

      .cls-2, .cls-3 {
        stroke-width: 1px;
      }

      .cls-3 {
        stroke: #000;
      }
    </style>
  </defs>
  <path id="Shape_319_1" data-name="Shape 319 1" class="cls-1" d="M390.144,274.747H1539.59c34.56,0,73.38-2.69,101.53,4.657,42.3,11.04,79.39,34.646,102.46,65.193,18.15,24.034,30.63,51.764,38.19,86.614,3.86,17.781,1.86,40.207,1.86,60.537V1227.5c0.01,20.33,2.02,42.77-1.86,60.54-8.33,38.24-22.69,66.33-42.85,92.2-24.82,31.87-65.2,52.3-111.77,62.4-27.77,6.03-65.02,1.87-95.95,1.87H1343.05l-141.59,141.56q-36.315,36.315-72.65,72.64c-17.65,17.65-33.74,36.14-55.89,49.36-31.42,18.75-88.984,24.22-127.615,8.39-38.774-15.9-62.984-47.14-90.354-74.51q-67.059-66.585-134.132-133.18-31.668-32.13-63.341-64.26H390.144q-8.382-.945-16.767-1.87-17.7-4.65-35.4-9.31c-41.975-16.67-74.933-45.23-96.874-81.96-32.075-53.69-24.218-151.51-24.218-237.49V613.753c0-87.938-8.733-190.746,24.218-245.872,21.944-36.711,54.892-65.314,96.874-81.958l35.4-9.313Z"/>
  <path id="Shape_316_1" data-name="Shape 316 1" class="cls-2" d="M878.888,443c56.636-.291,76.565,38.225,94.909,76.5,17.435,36.378,33.023,75.239,48.733,113.466,5.32,12.942,15.96,42.756,20.52,51.855,16.15,0.074,49.04.514,67.21,0.513l80.54,2.568,21.55,0.513c23.31,3.825,44.16,2.868,61.56,11.809,12.57,6.453,27.1,22.55,22.06,44.667-11.38,50.016-60.76,48.174-111.83,36.966l-52.33-3.594c-7.64-1.252-51.5-1.678-55.92-1.54q11.28,33.369,22.57,66.744c14.24,40.817,27.34,83.754,37.96,127.842,9.56,39.682,10.18,71.5-28.21,81.122-34.15,8.55-52.44-19.57-62.59-39.54-19.67-38.7-27.86-86.112-42.58-130.4q-17.7-53.9-35.4-107.818l-62.076.514c-47.563,0-99,.1-141.594,4.62-39.457,4.187-57.831.542-64.127-21.563-5.726-20.1,2.678-43.774,13.851-52.369,16.953-13.04,44.966-11.424,71.31-15.4H816.3l63.1-2.567,53.867-1.541,0.513-1.027q-9.489-23.871-18.982-47.747c-17.106-41.473-33.069-82.057-48.224-124.761-5.651-15.925-18-52.027-1.539-64.691C868.945,445.127,873.763,445.1,878.888,443Z"/>
  <rect id="Rounded_Rectangle_1_copy_2" data-name="Rounded Rectangle 1 copy 2" class="cls-3" x="620" y="1145" width="761" height="108" rx="54" ry="54"/>
</svg>
