<svg xmlns="http://www.w3.org/2000/svg" width="500" height="500" viewBox="0 0 2000 2000">
  <defs>
    <style>
      .cls-1 {
        fill: #fff;
        fill-rule: evenodd;
      }
    </style>
  </defs>
  <path id="Shape_323_1" data-name="Shape 323 1" class="cls-1" d="M481.414,194.7H1448.02c34.23,0,72.59-3.1,101.49,3.865,58.88,14.189,102.29,34.629,143.06,65.717,53.74,40.976,88.83,104.382,107.29,180.722,6.64,27.45,4.84,61.512,4.84,94.709V1451.05c0,37.5,2.3,76.83-5.8,107.27-21,78.86-57.91,140.28-115.03,182.65-36.37,26.99-78.23,45.59-129.52,57.99-39.92,9.65-95,4.83-142.09,4.83H542.31c-43.432.01-84.69,0.75-117.926-9.66-73.9-23.17-131.967-62.11-172.055-118.87-26.44-37.44-42.248-79.63-54.13-132.4-5.32-23.63-2.9-53.69-2.9-81.18V699.168c-0.007-123.417-11.6-262.616,34.8-340.181,38.688-64.678,88.008-114.12,161.423-144,18.193-7.405,38.667-11.56,58.963-16.43Zm4.833,115.971-20.3,2.9-32.865,9.664c-47.46,19.558-86.065,55.741-106.327,102.441-15.122,34.855-15.465,79.692-15.465,131.434V1430.75c0,54.87-.527,104.96,15.465,142.07,24.031,55.75,71.923,94.54,135.325,111.14,22.577,5.9,52.6,3.86,80.228,3.86h902.81c29.18,0,63.08,2.99,87.96-2.9,35.29-8.36,62.39-22.81,87-41.55,32.34-24.65,54.89-65.15,65.73-111.14,4.96-21.07,2.89-48.47,2.9-73.45v-921c0-26.5,1.8-54.76-3.87-76.347-12.31-46.855-36.53-85.928-70.56-111.139-23.99-17.767-51.81-29.958-86.03-37.691-24.88-5.621-58.89-1.932-87-1.932h-955Z"/>
  <path id="Shape_338_1" data-name="Shape 338 1" class="cls-1" d="M810.408,647.038c39.244-.974,60.008,15.369,83.892,29.71l69.442,40.15q159.147,91.732,318.308,183.483c12.4,7.368,25.49,14.515,36.53,23.287,21.3,16.928,41.98,57.882,31.71,98.362-15.25,60.11-74.74,78.7-122.03,106.8q-129.825,74.88-259.7,149.76-32.711,18.87-65.428,37.74c-26.5,15.86-43.719,28.59-80.681,34.93-21.878,3.75-46.26-7.51-58.2-14.86-22.121-13.61-38.4-33.55-45.76-61.83-3.644-13.99-2.409-33.28-2.408-50.58V845.376c0-44.952-5.5-106.6,8.429-138.516,11.161-25.56,31.749-43.864,58.2-54.2C790.734,649.523,802.5,650.251,810.408,647.038ZM927.215,954.583l-59.808,2.409c-9.8,1.544-20.9-.217-29.3,1.2-11.905,2.013-22.181,1.3-29.7,7.227-5.607,4.417-10.171,18.079-6.824,28.506,3.607,11.241,18.382,13.861,34.119,11.241,22.83-3.79,49.852-2.81,75.463-2.81q17.46,0.2,34.922.4,9.832,29.91,19.668,59.82c7.695,24.44,11.88,52.1,24.084,72.27,5.511,9.11,15.827,21.5,32.517,16.47,18.86-5.7,19.34-23.81,14.05-44.57-9.11-35.66-19.25-70.55-32.52-103.18v-0.41q12.84,0.21,25.69.41l33.32,2.4c23.42,4.67,46.66,7.39,56.6-12.442,1.79-3.575,4.51-9.373,3.21-15.659-3.38-16.294-17.31-17.551-34.52-20.476-29.12-4.947-69.62-3.73-101.959-3.613-17.273-38.219-28.41-83.268-52.985-114.426C926.677,831.038,909.069,819,892.7,825.3c-11.573,4.457-5.242,25.86-2.007,34.93Q908.949,907.4,927.215,954.583Z"/>
  <path class="cls-1" d="M836,737l262,152,131,111-84,128-146,95-170-16L756,870Z"/>
</svg>
