<svg xmlns="http://www.w3.org/2000/svg" width="500" height="500" viewBox="0 0 2000 2000">
  <defs>
    <style>
      .cls-1 {
        fill: #fff;
        fill-rule: evenodd;
      }
    </style>
  </defs>
  <path id="Shape_317_1" data-name="Shape 317 1" class="cls-1" d="M1540.77,453.011V1480.82c0,36.01,3.29,76.59-3.93,107.1-12.72,53.72-34.46,90.89-62.89,127.74-30.94,40.1-88.22,69.38-145.44,83.52-39.67,9.82-94.59,4.92-141.5,4.92H760.541c-28.461,0-60.928,3.42-86.473-1.97-50.859-10.72-89.641-25.62-124.8-51.09-49.632-35.97-82.51-90.12-100.23-158.2-10.842-41.65-4.913-107.37-4.913-157.22V507.054c0-31.725-1.86-64.489,4.913-90.4,13.38-51.187,34.3-87.051,61.907-122.826,30.938-40.092,88.221-69.375,145.432-83.522,45.047-11.139,108.473-4.911,161.155-4.913H1126.09c104.35,0,200.99-6.985,270.23,28.5,58.26,29.858,102.49,79.555,127.74,142.478,6.34,15.8,9.9,33.478,13.76,51.1Q1539.29,440.236,1540.77,453.011Zm-117.92,4.913c-4.6-8.791-4.77-29.154-8.85-39.3-13.34-33.23-36.69-59.136-65.83-76.643-41.45-24.906-117.49-18.67-183.76-18.67H809.674c-79.436,0-139.4-5.813-186.7,27.513-27.665,19.492-48.147,50.228-57.976,87.452-5.554,21.031-2.948,50.388-2.948,75.661V1499.49c0,24.13-2.356,51.73,2.948,71.73,10.317,38.9,32.262,70.77,61.907,90.4,37.938,25.13,82.692,24.56,146.415,24.56H1200.77c78.08,0.01,117.25,2.71,163.12-30.46,5.84-4.22,13.2-8.27,17.69-13.75,16.51-20.18,30.61-41.54,38.32-70.75,6.86-25.99,2.95-63.68,2.95-94.33V457.924Z"/>
  <path id="Shape_316_1" data-name="Shape 316 1" class="cls-1" d="M876.834,683c58.81-.3,79.5,39.664,98.553,79.379,18.1,37.747,34.293,78.07,50.613,117.737,5.52,13.429,16.57,44.366,21.3,53.807,16.76,0.077,50.92.533,69.79,0.533l83.64,2.663,22.37,0.533c24.2,3.969,45.85,2.976,63.93,12.253,13.04,6.7,28.13,23.4,22.9,46.349-11.82,51.9-63.09,49.986-116.13,38.356q-27.165-1.86-54.34-3.73c-7.92-1.3-53.47-1.74-58.06-1.6q11.715,34.635,23.44,69.26c14.79,42.35,28.39,86.91,39.42,132.65,9.93,41.18,10.56,74.2-29.3,84.18-35.46,8.87-54.46-20.31-64.99-41.02-20.43-40.17-28.93-89.36-44.22-135.32q-18.375-55.935-36.756-111.88l-64.459.54c-49.389,0-102.8.1-147.031,4.79-40.972,4.34-60.052.56-66.59-22.37-5.945-20.863,2.782-45.426,14.384-54.345,17.6-13.531,46.692-11.854,74.048-15.982h32.5l65.524-2.664,55.936-1.6q0.266-.532.533-1.065-9.855-24.771-19.711-49.546c-17.763-43.033-34.339-85.145-50.076-129.457-5.868-16.524-18.686-53.985-1.6-67.126C866.508,685.207,871.512,685.179,876.834,683Z"/>
</svg>
