<svg xmlns="http://www.w3.org/2000/svg" width="999.936" height="335.916" viewBox="0 0 3840 1290">
  <defs>
    <style>
      .cls-1, .cls-2 {
        fill: orange;
      }

      .cls-1 {
        fill-rule: evenodd;
      }
    </style>
  </defs>
  <path id="Shape_346_1" data-name="Shape 346 1" class="cls-1" d="M796.034,353.012c21.086,0.932,39.353,6.2,47.923,24.589,15.16,45.4,2.2,87.808-58.742,82.77-30.514-3.591-47.369-23.4-42.026-60.337,1.65-11.407,2.247-19.361,7.074-27.048,6.682-10.643,18.551-16.538,33.288-19.141ZM260.925,365.08H386.172Q438.6,618.264,491.03,871.5H388.669q-0.209-.417-0.416-0.833Q377.227,813.246,366.2,755.815H269.663L245.529,871.5H144l0.416-.833Q202.664,617.9,260.925,365.08ZM1169.69,695.894q0.21,61.164.42,122.339,2.505,26.63,4.99,53.264h-71.57c-6.18,0-17.55,1.649-22.05-.833q-2.7-17.683-5.41-35.37h-2.08c-23.88,34.053-78.81,56.255-131.071,32.874-33.642-15.051-51.868-47.449-58.255-90.3-2.539-17.032,1.105-36.288,4.993-49.1,21.838-71.974,91.261-93.592,173.933-104.862-0.29-57.411-53.61-61-102.363-45.773-11.912,3.721-22.109,9.964-32.872,14.564l-19.141-66.579c42.566-25.376,147.546-41.7,198.9-12.484,36.4,20.7,55.41,54.708,60.34,106.943l76.14-2.5q-29.325-75.518-58.67-151.051c-4.98-15.848-16.01-46.442,2.08-57.008,20.34-7.925,50.52,4.2,64.92,21.638,12.28,12.68,23.49,34.994,32.45,55.344q17.475,40.983,34.95,81.975,9.165,23.925,18.31,47.854l82.39,1.664c23.16,0.832,44.81,1.311,69.49,2.5s64.06,3.576,69.07,35.786c1.85,11.841-2.81,21.338-7.07,27.464-19.65,28.233-51.82,23.218-90.71,17.061l-48.68-3.745-44.94-1.665q9.975,29.543,19.97,59.089c12,34.526,20.88,69.957,31.21,106.111,8.96,31.384,11.39,62.861-18.31,73.236-30.09,10.509-49.05-12.515-58.26-30.376-16.85-32.706-24.12-72.467-36.61-110.272q-16.23-49.512-32.46-99.036ZM319.179,458.29q-13.314,77.806-26.63,155.629-6.241,32.663-12.483,65.331h76.563q-4.161-24.549-8.322-49.1-13.314-85.713-26.631-171.441l-0.416-.417h-2.081ZM719.887,597.274c-91-3.115-90.3,50.213-90.294,138.568V871.5H524.735V581.462q-1.457-38.7-2.913-77.4l90.294,0.416q2.7,26.836,5.41,53.679h3.328c9.282-27.955,30.42-51.4,61.168-58.257,3.833-.854,35.846-2.878,37.865,0v97.372Zm25.382-93.21H850.127V871.5H745.269V504.064ZM1061.92,698.807l-22.47,2.081c-21.4,4.515-41.139,14.072-51.176,29.96-7.668,8.745-10.017,58.193,12.9,69.908,5.98,3.606,16.26,5.694,25.8,4.161,35.59-5.716,39.53-29.567,39.53-71.156q-0.21-17.475-.41-34.954h-4.17Z"/>
  <rect class="cls-2" x="1637" y="116" width="58" height="1049"/>
  <path id="Shape_347_1" data-name="Shape 347 1" class="cls-1" d="M1788.86,330.042c78.36-1.1,155.18-7.314,186.9,38.414,9.34,13.46,17.11,38.012,14.15,59.643-10.79,78.753-56.06,90.237-146.49,88.958V587.82h-54.56V330.042Zm239.44,0c62.95-.972,135.86-6.22,170.74,21.229,50.53,39.781,34.2,127.045-16.17,153.656q25.26,41.442,50.51,82.893l-58.59-1.011q-21.72-35.377-43.44-70.763h-48.5V587.82H2028.3V330.042Zm243.48,0h174.77v48.523H2325.32v54.588h107.09v47.512H2325.32V539.3h125.27l1.02,1.011V587.82H2271.78V330.042Zm221.25,0h45.46l85.87,158.71h1.01l83.86-158.71h45.46V587.82h-50.51q-1.02-75.3-2.03-150.623-33.33,61.658-66.67,123.329h-24.25q-33.84-61.659-67.69-123.329V587.82h-50.51V330.042Zm316.21,0h54.56V587.82h-54.56V330.042Zm109.11,0h174.78v48.523H2971.9v54.588h107.09v47.512H2971.9V539.3h125.27c0.34,0.337.68,0.674,1.01,1.011V587.82H2918.35V330.042Zm221.26,0c64.69-1,137.18-5.936,172.75,22.24,49.55,39.244,32.21,128.2-18.18,152.645,14.6,23.993,17,26.5,51.52,82.893h-58.59q-22.23-35.883-44.46-71.774h-48.49V587.82h-54.55V330.042ZM1843.42,378.565v88.959c44.12,1.232,83.59,3.609,91.93-31.338C1949.16,378.352,1894.01,377.189,1843.42,378.565Zm239.43,0v88.959c42.71,1.194,81.95,3.559,90.93-29.316C2190.02,378.728,2133.08,377.194,2082.85,378.565Zm1111.31,0v88.959c43.64,1.213,83.14,3.71,91.94-30.327C3301.27,378.463,3244.59,377.2,3194.16,378.565ZM1884.84,679.811c183.6-12.774,187.19,235.737,41.42,264.853-98.45,19.663-176.11-75.59-146.49-173.873C1796.67,714.725,1840.05,685.543,1884.84,679.811Zm692.04,128.383h48.49c0.34,0.337.68,0.674,1.01,1.011q-0.495,52.56-1.01,105.132c-90.67,64.621-241.07,20.344-219.23-119.285,18.84-120.371,137.97-149.589,224.28-71.773q-16.665,18.194-33.33,36.392c-0.68-.337-1.35-0.674-2.03-1.011-38.71-51.468-118.03-28.353-132.34,29.316-20.81,83.844,46.67,121.393,114.16,97.046V808.194ZM3685.16,702.05q-8.6,22.743-17.18,45.49c-17.88-10.758-128.26-43.284-107.09,17.186,12.68,36.2,117.09,12.443,132.35,86.936,4.11,20.072-.67,41.881-9.09,55.6-27.23,44.336-110.46,47.65-160.64,22.24L3502.3,917.37q8.58-22.743,17.17-45.49l4.04,1.011c18.77,19.49,126.15,50.762,116.18-12.131-25.62-26.168-79.7-24.157-109.11-46.5-36.83-27.99-25.47-95.748,8.09-118.274C3548.7,689.248,3606.42,657.569,3685.16,702.05Zm-1616.45-18.2c62.95-.974,135.86-6.219,170.74,21.229,52.22,41.107,32.51,125.185-16.17,153.655q25.26,41.443,50.52,82.893l-58.6-1.011q-21.72-35.378-43.44-70.762h-48.5v71.773h-54.55V683.854Zm243.48,0h53.54V941.631h-53.54V683.854Zm363.7,0h53.54V941.631h-53.54V683.854Zm108.1,0h45.46l114.16,155.677V683.854h53.55V941.631h-45.47q-56.565-77.325-113.15-154.666-0.495,77.325-1.01,154.666h-53.54V683.854Zm339.45,0h53.55l104.05,257.777h-56.57q-10.11-27.291-20.21-54.588h-108.1q-9.585,27.291-19.19,54.588H3021.4Zm181.85,0h54.56V893.109h115.17v48.522H3305.29V683.854Zm-1413.38,46.5c-22.73,1.264-50.21,22.591-59.61,54.588-16.64,56.721,19.38,121.036,79.82,110.187C1998.01,879.713,1999.65,724.038,1891.91,730.355Zm231.35,2.022v88.958c42.84,1.2,81.73,3.471,90.93-29.315C2230.83,732.713,2173.16,731.012,2123.26,732.377Zm1026.45,12.131q-17.685,48.012-35.36,96.034h71.73v-1.011Q3167.9,792.025,3149.71,744.508Z"/>
</svg>
