<!DOCTYPE svg PUBLIC "-//W3C//DTD SVG 1.1//EN" "http://www.w3.org/Graphics/SVG/1.1/DTD/svg11.dtd">
<!-- Uploaded to: SVG Repo, www.svgrepo.com, Transformed by: SVG Repo Mixer Tools -->
<svg width="256px" height="256px" viewBox="0 0 48 48" xmlns="http://www.w3.org/2000/svg" fill="#ffffff">
<g id="SVGRepo_bgCarrier" stroke-width="0"/>
<g id="SVGRepo_tracerCarrier" stroke-linecap="round" stroke-linejoin="round"/>
<g id="SVGRepo_iconCarrier"> <title>sports-boxing-solid</title> <g id="Layer_2" data-name="Layer 2"> <g id="invisible_box" data-name="invisible box"> <rect width="48" height="48" fill="none"/> </g> <g id="Q3_icons" data-name="Q3 icons"> <path d="M36,2H22.7a6,6,0,0,0-6,6V22a1.8,1.8,0,0,1-1.8,1.8h0A1.8,1.8,0,0,1,13.1,22V10.6H12a6,6,0,0,0-6,6V27a7.9,7.9,0,0,0,7,7.9V43a3,3,0,0,0,3,3H32a3,3,0,0,0,3-3V34.9A7.9,7.9,0,0,0,42,27V8A6,6,0,0,0,36,2ZM27,40H21a1.5,1.5,0,0,1,0-3h6a1.5,1.5,0,0,1,0,3Z"/> </g> </g> </g>
</svg>