<!DOCTYPE svg PUBLIC "-//W3C//DTD SVG 1.1//EN" "http://www.w3.org/Graphics/SVG/1.1/DTD/svg11.dtd">
<!-- Uploaded to: SVG Repo, www.svgrepo.com, Transformed by: SVG Repo Mixer Tools -->
<svg height="256px" width="256px" version="1.1" id="Layer_1" xmlns="http://www.w3.org/2000/svg" xmlns:xlink="http://www.w3.org/1999/xlink" viewBox="0 0 512 512" xml:space="preserve" fill="#000000">
<g id="SVGRepo_bgCarrier" stroke-width="0"/>
<g id="SVGRepo_tracerCarrier" stroke-linecap="round" stroke-linejoin="round"/>
<g id="SVGRepo_iconCarrier"> <path style="fill:#73D8D0;" d="M499.311,343.591c-27.462,74.281-90.551,96.507-150.083,74.487c-0.526-0.194-1.052-0.389-1.566-0.595 c-6.048-2.309-11.81-4.996-17.264-8.038l32.161-246.133c4.882-3.258,9.844-6.197,14.852-8.781c3.396-1.749,6.826-3.338,10.256-4.768 c15.48-6.414,31.19-9.284,46.121-7.534h0.011c5.465,0.629,10.816,1.886,16.018,3.807 C509.36,168.057,526.785,269.298,499.311,343.591z"/> <path style="fill:#69CCC2;" d="M410.692,196.846c0,0-0.003-0.008-0.009-0.023c-0.155-0.424-0.317-0.846-0.474-1.269 c-2.059-6.058-8.586-32.288,23.58-53.324c-14.932-1.749-30.641,1.12-46.121,7.534c-1.596,0.66-3.188,1.37-4.779,2.104 c-0.211,0.098-0.424,0.194-0.636,0.294c-1.509,0.707-3.015,1.441-4.517,2.211c-0.107,0.055-0.216,0.103-0.324,0.159l0.001,0.011 c-5.008,2.585-9.971,5.515-14.853,8.77l-32.161,246.133c5.454,3.041,11.216,5.728,17.264,8.038 c46.659-19.848,78.969-65.455,78.969-133.962c0-28.932-5.768-58.953-15.939-86.675L410.692,196.846z"/> <path style="fill:#CEC73C;" d="M497.744,343.591c-27.462,74.281-90.551,96.507-150.083,74.487c-0.526-0.194-1.052-0.389-1.566-0.595 c-6.048-2.309-11.81-4.996-17.264-8.038l15.481-118.459L497.744,343.591z"/> <path style="fill:#C4BA39;" d="M425.242,317.672c-8.941,49.666-37.627,83.474-76.042,99.812c-6.048-2.309-11.81-4.996-17.264-8.038 l15.481-118.459L425.242,317.672z"/> <path style="fill:#FCC447;" d="M149.443,163.317c-28.632-19.08-59.994-27.356-87.254-17.276 C2.64,168.056-14.779,269.303,12.685,343.588s90.551,96.505,150.088,74.491c6.616-2.442,12.908-5.329,18.827-8.638"/> <path style="fill:#F2B844;" d="M50.413,343.587c-27.465-74.286-10.045-175.531,49.503-197.546c2.151-0.796,4.33-1.463,6.528-2.034 c-15.216-3.468-30.276-3.136-44.257,2.034C2.639,168.056-14.78,269.303,12.684,343.587c23.722,64.162,74.016,89.475,125.646,81.001 C101.15,418.138,68.259,391.859,50.413,343.587z"/> <path style="fill:#73D8D0;" d="M162.764,418.078c-8.107,2.998-16.288,5.169-24.442,6.503c0.003,0,0.006,0.001,0.009,0.001 c-0.366,0.057-0.732,0.126-1.109,0.183c-0.137,0.023-0.286,0.046-0.434,0.069c-51.083,7.729-100.623-17.721-124.107-81.244 c-2.447-6.62-4.539-13.445-6.265-20.42c7.912,2.47,16.235,4.287,28.411-0.217c3.224-1.189,5.957-2.538,8.3-4.024 c17.527-10.953,14.2-28.663,38.175-37.535c27.211-10.061,35.134,11.387,62.345,1.326c10.164-3.762,15.423-9.112,19.448-14.863 l18.499,141.588C175.672,412.75,169.384,415.631,162.764,418.078z"/> <path style="fill:#69CCC2;" d="M138.331,424.583c-0.366,0.057-0.732,0.126-1.109,0.183c-0.137,0.023-0.286,0.046-0.434,0.069 c-51.083,7.729-100.623-17.721-124.107-81.244c-2.447-6.62-4.539-13.445-6.265-20.42c7.912,2.47,16.235,4.287,28.411-0.217 c3.224-1.189,5.957-2.538,8.3-4.024c1.921,8.438,4.345,16.704,7.283,24.661C68.258,391.862,101.151,418.135,138.331,424.583z"/> <path style="fill:#FC675B;" d="M392.337,283.521c0,94.375-61.319,145.28-136.96,145.28s-136.96-50.906-136.96-145.28 s61.318-200.322,136.96-200.322S392.337,189.146,392.337,283.521z"/> <path style="fill:#E8564F;" d="M158.342,283.521c0-85.915,50.82-181.403,116.998-197.837c-6.517-1.619-13.181-2.483-19.962-2.483 c-75.641,0-136.96,105.947-136.96,200.32c0,94.375,61.319,145.28,136.96,145.28c6.781,0,13.445-0.416,19.962-1.229 C209.161,419.317,158.342,369.434,158.342,283.521z"/> <path style="fill:#FCC447;" d="M255.377,241.616c0-23.462,16.154-42.481,36.081-42.481c24.909,0,45.102,23.774,45.102,53.102 c0,36.659-43.443,72.499-81.183,91.793c-37.741-19.295-81.183-55.134-81.183-91.793c0-29.327,20.192-53.102,45.102-53.102 C239.222,199.134,255.377,218.154,255.377,241.616z"/> </g>
</svg>