<!DOCTYPE svg PUBLIC "-//W3C//DTD SVG 1.1//EN" "http://www.w3.org/Graphics/SVG/1.1/DTD/svg11.dtd">
<!-- Uploaded to: SVG Repo, www.svgrepo.com, Transformed by: SVG Repo Mixer Tools -->
<svg fill="#ffffff" version="1.1" id="Capa_1" xmlns="http://www.w3.org/2000/svg" xmlns:xlink="http://www.w3.org/1999/xlink" width="256px" height="256px" viewBox="0 0 490.225 490.225" xml:space="preserve">
<g id="SVGRepo_bgCarrier" stroke-width="0"/>
<g id="SVGRepo_tracerCarrier" stroke-linecap="round" stroke-linejoin="round"/>
<g id="SVGRepo_iconCarrier"> <g> <g> <path d="M245.112,177.479c28.799,0,52.229-23.432,52.229-52.229c0-28.797-23.43-52.228-52.229-52.228s-52.229,23.43-52.229,52.228 C192.883,154.048,216.313,177.479,245.112,177.479z"/> <path d="M156.292,250.5h177.642l-27.187-63.613l63.616,27.185V36.431l-63.616,27.183L333.934,0H156.292l27.186,63.616 l-63.615-27.185v177.64l63.615-27.187L156.292,250.5z M166.956,125.25c0-43.164,34.992-78.156,78.156-78.156 s78.157,34.992,78.157,78.156c0,43.164-34.993,78.156-78.157,78.156S166.956,168.414,166.956,125.25z"/> <path d="M383.256,448.924L261.924,259.271h-33.623L106.968,448.924c-4.242,6.635-2.305,15.445,4.326,19.689 c2.379,1.52,5.038,2.25,7.668,2.25c4.697,0,9.299-2.324,12.02-6.574l100.354-156.863v169.021c0,7.607,6.169,13.777,13.777,13.777 c7.608,0,13.777-6.17,13.777-13.777V307.425l100.354,156.862c2.721,4.252,7.321,6.574,12.021,6.574 c2.629,0,5.291-0.729,7.669-2.248C385.562,464.369,387.498,455.557,383.256,448.924z"/> </g> </g> </g>
</svg>