<svg xmlns="http://www.w3.org/2000/svg" width="720" height="720" viewBox="0 0 2000 2000">
  <defs>
    <style>
      .cls-1, .cls-2 {
        fill: #fff;
        stroke: #fff;
        fill-rule: evenodd;
      }

      .cls-1 {
        stroke-width: 30px;
      }

      .cls-2 {
        stroke-width: 1px;
      }
    </style>
  </defs>
  <path id="Shape_348_1" data-name="Shape 348 1" class="cls-1" d="M1214.38,471.152s266.11,154.553,399.14,231.819c49.4,29.517,170.65,82.176,191.15,131.76,10.29,24.865,7.93,62.88,7.93,98.078V1087.35c0,34.7,3.11,73.99-7.93,98.08C1771.76,1257.3,1677.19,1297.09,1612,1337c-99.03,59.43-194.97,116.57-294,176-77.19,47.03-141.53,91.5-246.24,112.29-112.675,22.38-182.2-40.13-247.6-76.28Q605.794,1422.215,387.384,1295.4c-51.222-30.27-168.8-80.43-191.151-131.76-10.687-24.54-7.925-63.1-7.923-98.08V910.023c0-34.476-2.553-71.793,7.923-96.1,29.177-67.686,151.764-124.1,216.9-161.481,165.89-99.672,326.1-203.367,423.9-253.614C1004.82,320.77,1214.38,471.152,1214.38,471.152ZM859.814,433.506C797.045,459.564,740.236,502.9,683.519,537.527L389.365,713.868c-38.648,23.551-171.715,79.773-157.477,144.64,7.162,32.631,56.344,48.222,82.205,63.4Q434.417,991.748,554.765,1061.6q145.082,84.2,290.193,168.41c43.4,23.79,74.1,47.26,128.042,59.99,131.92,19.21,150.56-.47,611.8-272.98,48.75-29.828,148.59-74.568,176.3-119.876,11.11-18.181,7.23-42.439-5.1-58.144-10.04-12.782-25.12-20.484-39.47-29.036q-56.955-33.185-113.9-66.375C1467.61,665.333,1197.55,508.8,1197.55,508.8S981.163,366.006,859.814,433.506ZM231.888,923.893q-0.5,81.723-.99,163.457c0,21.61-2.984,50.58,4.952,65.39,13.971,26.07,75.324,52.11,103,67.37q120.324,69.825,240.672,139.68,128.742,74.79,257.509,149.59c47.2,27.78,89.784,63.33,151.535,75.3,92.881,13.66,180.211-29.21,238.431-64.68,121.15-72.64,242.85-145.36,364-218,48.43-29.5,151.86-78.01,174.06-128.46,8.26-18.78,4.95-52.31,4.95-78.26V952.622q-15.84,11.393-31.69,22.786-52,31.2-104,62.412C1473.97,1133.27,1178.98,1325.81,1082,1336c-120.952,22.65-224.323-48.85-293.5-90.14Q510.224,1084.9,231.888,923.893Z"/>
  <path id="Shape_316_1" data-name="Shape 316 1" class="cls-2" d="M1135.49,629.913c46.53,25.647,33.34,53.272,19.09,79.976-13.5,25.306-30.36,50.885-46.57,76.143-5.48,8.535-19.4,27.432-22.57,33.783,13.01,7.3,39.32,22.319,54.03,30.5q31.62,18.728,63.24,37.448l17.04,9.932c15.94,12.272,33.53,21.2,40.8,33.2,5.25,8.656,4.75,22.686-16.11,30.721-47.03,18.123-85.42-4.833-118.15-32.924q-19.755-12.561-39.51-25.13c-5.21-4.008-40.29-23.877-43.97-25.795q-15.915,20.663-31.79,41.258a803.168,803.168,0,0,1-64.656,76.086c-21.72,22.481-44.728,37.331-82.5,24.711-33.587-11.22-27.546-32.244-20.971-45.933,12.774-26.6,41.249-52.2,62.258-79.354l51.793-66.3L906.4,800.6c-38.447-21.362-80.117-44.427-117.919-61.428-35.02-15.75-47.188-25.74-35.915-39.078,10.268-12.149,34.665-19.651,50.122-18.715,23.47,1.421,44.994,14.829,69.337,24.815l25.385,14.113,53.094,27.23,44.824,23.548,1.187-.256q10.257-15.6,20.548-31.244c17.41-27.513,35.13-54.172,55.17-81.57,7.5-10.241,24.9-33.292,48.02-31.927C1125.74,626.413,1129.7,628.594,1135.49,629.913Z"/>
</svg>
