<!DOCTYPE svg PUBLIC "-//W3C//DTD SVG 1.1//EN" "http://www.w3.org/Graphics/SVG/1.1/DTD/svg11.dtd">
<!-- Uploaded to: SVG Repo, www.svgrepo.com, Transformed by: SVG Repo Mixer Tools -->
<svg version="1.1" id="Layer_1" xmlns="http://www.w3.org/2000/svg" xmlns:xlink="http://www.w3.org/1999/xlink" viewBox="0 0 512 512" xml:space="preserve" width="256px" height="256px" fill="#ffffff">
<g id="SVGRepo_bgCarrier" stroke-width="0"/>
<g id="SVGRepo_tracerCarrier" stroke-linecap="round" stroke-linejoin="round"/>
<g id="SVGRepo_iconCarrier"> <g transform="translate(1 1)"> <path style="fill:#000000;" d="M433.286,501.857H76.714c-38.4,0-68.571-30.171-68.571-68.571V76.714 c0-38.4,30.171-68.571,68.571-68.571H434.2c37.486,0,67.657,30.171,67.657,68.571V434.2 C501.857,471.686,471.686,501.857,433.286,501.857L433.286,501.857z"/> <g> <path style="fill:#ffffff;" d="M433.286,511H76.714C33.743,511-1,476.257-1,433.286V76.714C-1,33.743,33.743-1,76.714-1H434.2 C476.257-1,511,33.743,511,76.714V434.2C511,476.257,476.257,511,433.286,511z M76.714,17.286 c-32.914,0-59.429,26.514-59.429,59.429V434.2c0,32,26.514,58.514,59.429,58.514H434.2c32.914,0,59.429-26.514,59.429-59.429 V76.714C492.714,43.8,466.2,17.286,433.286,17.286H76.714z"/> <rect x="250.408" y="228.246" transform="matrix(-0.7071 0.7071 -0.7071 -0.7071 774.0406 154.1593)" style="fill:#ffffff;" width="209.369" height="18.286"/> <path style="fill:#ffffff;" d="M428.714,255c-5.486,0-9.143-3.657-9.143-9.143v-73.143h-73.143c-5.486,0-9.143-3.657-9.143-9.143 s3.657-9.143,9.143-9.143h91.429v91.429C437.857,251.343,434.2,255,428.714,255z"/> </g> <path style="fill:#ffffff;" d="M291.571,337.286c0,20.114-16.457,36.571-36.571,36.571s-36.571-16.457-36.571-36.571 s16.457-36.571,36.571-36.571S291.571,317.171,291.571,337.286L291.571,337.286z"/> <path style="fill:#ffffff;" d="M255,383c-25.6,0-45.714-20.114-45.714-45.714c0-25.6,20.114-45.714,45.714-45.714 s45.714,20.114,45.714,45.714C300.714,362.886,280.6,383,255,383z M255,309.857c-15.543,0-27.429,11.886-27.429,27.429 c0,15.543,11.886,27.429,27.429,27.429s27.429-11.886,27.429-27.429C282.429,321.743,270.543,309.857,255,309.857z"/> <path style="fill:#ffffff;" d="M136.143,181.857c0,20.114-16.457,36.571-36.571,36.571S63,201.971,63,181.857 s16.457-36.571,36.571-36.571S136.143,161.743,136.143,181.857L136.143,181.857z"/> <g> <path style="fill:#ffffff;" d="M99.571,227.571c-25.6,0-45.714-20.114-45.714-45.714s20.114-45.714,45.714-45.714 s45.714,20.114,45.714,45.714S125.171,227.571,99.571,227.571z M99.571,154.429c-15.543,0-27.429,11.886-27.429,27.429 s11.886,27.429,27.429,27.429S127,197.4,127,181.857S115.114,154.429,99.571,154.429z"/> <path style="fill:#ffffff;" d="M221.171,316.257l-102.4-102.4l12.8-12.8l102.4,102.4L221.171,316.257z M14.543,279.686l-12.8-12.8 l65.829-65.829l12.8,12.8L14.543,279.686z"/> </g> </g> </g>
</svg>