<!DOCTYPE svg PUBLIC "-//W3C//DTD SVG 1.1//EN" "http://www.w3.org/Graphics/SVG/1.1/DTD/svg11.dtd">
<!-- Uploaded to: SVG Repo, www.svgrepo.com, Transformed by: SVG Repo Mixer Tools -->
<svg height="256px" width="256px" version="1.1" id="Layer_1" xmlns="http://www.w3.org/2000/svg" xmlns:xlink="http://www.w3.org/1999/xlink" viewBox="0 0 512.00 512.00" xml:space="preserve" fill="#ffffff" stroke="#ffffff" stroke-width="0.0051199900000000005">
<g id="SVGRepo_bgCarrier" stroke-width="0"/>
<g id="SVGRepo_tracerCarrier" stroke-linecap="round" stroke-linejoin="round"/>
<g id="SVGRepo_iconCarrier"> <g> <path style="fill:#00ff00;" d="M47.077,464.922c33.588,23.566,87.195,38.821,147.59,38.821s114.003-15.254,147.59-38.822 c-33.587-23.566-87.193-38.821-147.59-38.821S80.666,441.355,47.077,464.922z"/> <path style="fill:#00ff00;" d="M338.336,239.559c-43.011,3.854-80.213,18.138-102.629,37.064 c25.423,14.64,64.572,22.083,107.583,18.229c43.011-3.854,80.214-18.138,102.629-37.064 C420.497,243.148,381.347,235.705,338.336,239.559z"/> <path style="fill:#00ff00;" d="M444.423,90.597c-25.626,7.707-46.424,21.021-57.667,35.307c17.258,5.714,41.951,5.344,67.575-2.363 c25.626-7.707,46.424-21.021,57.667-35.307C494.742,82.52,470.049,82.889,444.423,90.597z"/> <path style="fill:#00ff00;" d="M182.803,241.865c1.927-51.704-9.422-98.082-28.525-127.587 c-21.247,28.001-36.015,73.405-37.943,125.11c-1.927,51.704,9.422,98.081,28.525,127.587 C166.106,338.972,180.876,293.569,182.803,241.865z"/> <path style="fill:#00ff00;" d="M351.25,116.293c5.781-34.318,2.243-66.239-7.932-87.58c-16.606,16.829-30.405,45.829-36.186,80.148 s-2.243,66.238,7.932,87.58C331.67,179.611,345.469,150.611,351.25,116.293z"/> </g> <g> <path style="fill:#00ff00;" d="M270.135,329.197c-51.704,1.927-97.107,16.696-125.11,37.943 c29.506,19.103,75.883,30.452,127.587,28.525s97.108-16.696,125.11-37.943C368.216,338.618,321.838,327.27,270.135,329.197z"/> <path style="fill:#00ff00;" d="M395.707,160.75c-34.318,5.781-63.318,19.579-80.148,36.186 c21.341,10.177,53.261,13.713,87.58,7.932c34.318-5.781,63.318-19.579,80.148-36.186 C461.946,158.507,430.025,154.969,395.707,160.75z"/> <path style="fill:#00ff00;" d="M8.257,317.331c0,60.397,15.254,114.003,38.822,147.59C70.646,431.334,85.9,377.728,85.9,317.331 s-15.254-114.003-38.822-147.59C23.511,203.329,8.257,256.936,8.257,317.331z"/> <path style="fill:#00ff00;" d="M272.441,173.664c3.854-43.011-3.589-82.16-18.229-107.583 c-18.926,22.415-33.21,59.617-37.064,102.629s3.589,82.159,18.229,107.583C254.304,253.876,268.588,216.674,272.441,173.664z"/> <path style="fill:#00ff00;" d="M421.403,67.577c7.707-25.626,8.077-50.318,2.363-67.577c-14.285,11.244-27.6,32.041-35.307,57.667 s-8.077,50.317-2.363,67.575C400.383,113.999,413.696,93.201,421.403,67.577z"/> </g> <path style="fill:#00ff00;" d="M8.396,511.999c-2.148,0-4.297-0.819-5.936-2.458c-3.279-3.28-3.279-8.595,0-11.874L485.55,14.577 c3.279-3.278,8.595-3.278,11.873,0c3.279,3.28,3.279,8.595,0,11.874L14.332,509.541C12.693,511.179,10.545,511.999,8.396,511.999z"/> </g>
</svg>